<?xml version="1.0" encoding="UTF-8" standalone="no" ?>
<!DOCTYPE svg PUBLIC "-//W3C//DTD SVG 1.1//EN" "http://www.w3.org/Graphics/SVG/1.1/DTD/svg11.dtd">
<svg xmlns="http://www.w3.org/2000/svg" xmlns:xlink="http://www.w3.org/1999/xlink" version="1.1" width="720" height="1080" viewBox="0 0 720 1080" xml:space="preserve">
<desc>Created with Fabric.js 5.2.4</desc>
<defs>
</defs>
<rect x="0" y="0" width="100%" height="100%" fill="transparent"></rect>
<g transform="matrix(1 0 0 1 360 540)" id="474261d3-aca3-446b-b032-fbdb08d596a4"  >
<rect style="stroke: none; stroke-width: 1; stroke-dasharray: none; stroke-linecap: butt; stroke-dashoffset: 0; stroke-linejoin: miter; stroke-miterlimit: 4; fill: rgb(255,255,255); fill-rule: nonzero; opacity: 1; visibility: hidden;" vector-effect="non-scaling-stroke"  x="-360" y="-540" rx="0" ry="0" width="720" height="1080" />
</g>
<g transform="matrix(Infinity NaN NaN Infinity 0 0)" id="29e8399b-8eb8-4d4c-86ff-db4f395634c8"  >
</g>
<g transform="matrix(1.98 0 0 1.98 601.8 556.25)" id="52830958-4911-473f-8098-0c9a4c3cbf31"  >
<path style="stroke: rgb(0,0,0); stroke-width: 0; stroke-dasharray: none; stroke-linecap: butt; stroke-dashoffset: 0; stroke-linejoin: miter; stroke-miterlimit: 4; fill: rgb(57,57,57); fill-rule: nonzero; opacity: 1;" vector-effect="non-scaling-stroke"  transform=" translate(-228.62, -256.04)" d="M 288 0 C 275.8 0.1 264.7 7 259.4 18 L 195 150.3 L 51.4 171.5 C 39.4 173.3 29.4 181.7 25.7 193.2 C 22 204.7 25 217.39999999999998 33.6 225.89999999999998 L 137.8 329 L 113.2 474.7 C 111.2 486.7 116.2 498.9 126.10000000000001 506 C 136 513.1 149.10000000000002 514 159.9 508.3 L 288 439.8 L 288 0 z M 429.9 512 C 431 512.1 432 512.1 433.09999999999997 512 L 429.9 512 z" stroke-linecap="round" />
</g>
</svg>